<?xml version="1.0" encoding="UTF-8" standalone="no"?>
<svg width="800px" height="800px" viewBox="0 0 800 800" version="1.1" xmlns="http://www.w3.org/2000/svg" xmlns:xlink="http://www.w3.org/1999/xlink">
    <g stroke="none" stroke-width="1" fill="none" fill-rule="evenodd">
        <g stroke="#FFFFFF" stroke-width="1.5" opacity="0.15">
            <path d="M50,50 L150,50 L150,150 L250,150 L250,250 L350,250 L350,350 L450,350 L450,450 L550,450 L550,550 L650,550 L650,650 L750,650"></path>
            <path d="M50,750 L150,750 L150,650 L250,650 L250,550 L350,550 L350,450 L450,450 L450,350 L550,350 L550,250 L650,250 L650,150 L750,150"></path>
            <path d="M50,400 L200,400 L200,200 L400,200 L400,400 L600,400 L600,600 L750,600"></path>
            <path d="M50,200 L100,200 L100,100 L200,100 L200,300 L300,300 L300,500 L500,500 L500,700 L600,700 L600,600 L700,600 L700,500 L750,500"></path>
            <path d="M350,50 L350,100 L450,100 L450,200 L550,200 L550,300 L650,300 L650,400 L750,400"></path>
            <circle cx="50" cy="50" r="5"></circle>
            <circle cx="150" cy="50" r="5"></circle>
            <circle cx="150" cy="150" r="5"></circle>
            <circle cx="250" cy="150" r="5"></circle>
            <circle cx="250" cy="250" r="5"></circle>
            <circle cx="350" cy="250" r="5"></circle>
            <circle cx="350" cy="350" r="5"></circle>
            <circle cx="450" cy="350" r="5"></circle>
            <circle cx="450" cy="450" r="5"></circle>
            <circle cx="550" cy="450" r="5"></circle>
            <circle cx="550" cy="550" r="5"></circle>
            <circle cx="650" cy="550" r="5"></circle>
            <circle cx="650" cy="650" r="5"></circle>
            <circle cx="750" cy="650" r="5"></circle>
            <circle cx="50" cy="750" r="5"></circle>
            <circle cx="150" cy="750" r="5"></circle>
            <circle cx="150" cy="650" r="5"></circle>
            <circle cx="250" cy="650" r="5"></circle>
            <circle cx="250" cy="550" r="5"></circle>
            <circle cx="350" cy="550" r="5"></circle>
            <circle cx="350" cy="450" r="5"></circle>
            <circle cx="450" cy="450" r="5"></circle>
            <circle cx="450" cy="350" r="5"></circle>
            <circle cx="550" cy="350" r="5"></circle>
            <circle cx="550" cy="250" r="5"></circle>
            <circle cx="650" cy="250" r="5"></circle>
            <circle cx="650" cy="150" r="5"></circle>
            <circle cx="750" cy="150" r="5"></circle>
            <circle cx="50" cy="400" r="5"></circle>
            <circle cx="200" cy="400" r="5"></circle>
            <circle cx="200" cy="200" r="5"></circle>
            <circle cx="400" cy="200" r="5"></circle>
            <circle cx="400" cy="400" r="5"></circle>
            <circle cx="600" cy="400" r="5"></circle>
            <circle cx="600" cy="600" r="5"></circle>
            <circle cx="750" cy="600" r="5"></circle>
            <circle cx="50" cy="200" r="5"></circle>
            <circle cx="100" cy="200" r="5"></circle>
            <circle cx="100" cy="100" r="5"></circle>
            <circle cx="200" cy="100" r="5"></circle>
            <circle cx="200" cy="300" r="5"></circle>
            <circle cx="300" cy="300" r="5"></circle>
            <circle cx="300" cy="500" r="5"></circle>
            <circle cx="500" cy="500" r="5"></circle>
            <circle cx="500" cy="700" r="5"></circle>
            <circle cx="600" cy="700" r="5"></circle>
            <circle cx="600" cy="600" r="5"></circle>
            <circle cx="700" cy="600" r="5"></circle>
            <circle cx="700" cy="500" r="5"></circle>
            <circle cx="750" cy="500" r="5"></circle>
            <circle cx="350" cy="50" r="5"></circle>
            <circle cx="350" cy="100" r="5"></circle>
            <circle cx="450" cy="100" r="5"></circle>
            <circle cx="450" cy="200" r="5"></circle>
            <circle cx="550" cy="200" r="5"></circle>
            <circle cx="550" cy="300" r="5"></circle>
            <circle cx="650" cy="300" r="5"></circle>
            <circle cx="650" cy="400" r="5"></circle>
            <circle cx="750" cy="400" r="5"></circle>
        </g>
    </g>
</svg>